<svg width="60" height="60" viewBox="0 0 60 60" fill="none" xmlns="http://www.w3.org/2000/svg">
<g style="mix-blend-mode:color-burn" opacity="0.2">
<path d="M37.8188 35.625L32.9625 40.4813L35.625 43.125L43.125 35.625L35.625 28.125L32.9625 30.7687L37.8188 35.625ZM22.1812 35.625L27.0375 30.7687L24.375 28.125L16.875 35.625L24.375 43.125L27.0375 40.4813L22.1812 35.625Z" fill="#FC0808"/>
<path d="M16.875 16.875C17.9105 16.875 18.75 16.0355 18.75 15C18.75 13.9645 17.9105 13.125 16.875 13.125C15.8395 13.125 15 13.9645 15 15C15 16.0355 15.8395 16.875 16.875 16.875Z" fill="#FC0808"/>
<path d="M11.25 16.875C12.2855 16.875 13.125 16.0355 13.125 15C13.125 13.9645 12.2855 13.125 11.25 13.125C10.2145 13.125 9.375 13.9645 9.375 15C9.375 16.0355 10.2145 16.875 11.25 16.875Z" fill="#FC0808"/>
<path d="M52.5 7.5H7.5C5.43187 7.5 3.75 9.18187 3.75 11.25V48.75C3.75 50.8181 5.43187 52.5 7.5 52.5H52.5C54.5681 52.5 56.25 50.8181 56.25 48.75V11.25C56.25 9.18187 54.5681 7.5 52.5 7.5ZM52.5 11.25V18.75H7.5V11.25H52.5ZM7.5 48.75V22.5H52.5V48.75H7.5Z" fill="#FC0808"/>
</g>
</svg>
