<svg width="58" height="58" viewBox="0 0 58 58" fill="none" xmlns="http://www.w3.org/2000/svg">
<path d="M19.3356 9.66667H38.6689V14.4928H43.5023V9.66667C44.7837 9.66731 46.0125 10.1768 46.9184 11.0832C47.8243 11.9895 48.3332 13.2185 48.3332 14.5V43.5C48.3332 44.7815 47.8243 46.0105 46.9184 46.9168C46.0125 47.8232 44.7837 48.3327 43.5023 48.3333V43.4928H38.6689V48.3333H19.3356V43.4928H14.5023V48.3333C13.2204 48.3333 11.9886 47.8241 11.0822 46.9177C10.1757 46.0113 9.6665 44.7819 9.6665 43.5V14.5C9.6665 13.2181 10.1757 11.9887 11.0822 11.0823C11.9886 10.1759 13.218 9.66667 14.4998 9.66667L14.5023 14.4928H19.3356V9.66667ZM24.1665 36.25L35.0415 29L24.1665 21.75V36.25ZM43.5023 38.6594V31.4094H38.6689V38.6594H43.5023ZM43.5023 26.5761V19.3261H38.6689V26.5761H43.5023ZM19.3356 38.6594V31.4094H14.5023V38.6594H19.3356ZM19.3356 26.5761V19.3261H14.5023V26.5761H19.3356Z" fill="black"/>
</svg>
