<svg width="54" height="54" viewBox="0 0 54 54" fill="none" xmlns="http://www.w3.org/2000/svg">
<g clip-path="url(#clip0_37_79)">
<path d="M45 39.375C45.8667 39.3754 46.7001 39.7093 47.3274 40.3074C47.9547 40.9055 48.3278 41.7221 48.3694 42.5878C48.4111 43.4535 48.1181 44.3021 47.5511 44.9577C46.9841 45.6133 46.1867 46.0256 45.324 46.1092L45 46.125H9C8.13326 46.1246 7.29991 45.7907 6.67263 45.1926C6.04535 44.5945 5.67222 43.7779 5.63057 42.9122C5.58892 42.0465 5.88193 41.1979 6.44889 40.5423C7.01586 39.8867 7.81331 39.4744 8.676 39.3908L9 39.375H45ZM45 23.625C45.8951 23.625 46.7535 23.9806 47.3865 24.6135C48.0194 25.2464 48.375 26.1049 48.375 27C48.375 27.8951 48.0194 28.7536 47.3865 29.3865C46.7535 30.0194 45.8951 30.375 45 30.375H9C8.10489 30.375 7.24645 30.0194 6.61351 29.3865C5.98058 28.7536 5.625 27.8951 5.625 27C5.625 26.1049 5.98058 25.2464 6.61351 24.6135C7.24645 23.9806 8.10489 23.625 9 23.625H45ZM45 7.875C45.8951 7.875 46.7535 8.23058 47.3865 8.86351C48.0194 9.49645 48.375 10.3549 48.375 11.25C48.375 12.1451 48.0194 13.0036 47.3865 13.6365C46.7535 14.2694 45.8951 14.625 45 14.625H9C8.10489 14.625 7.24645 14.2694 6.61351 13.6365C5.98058 13.0036 5.625 12.1451 5.625 11.25C5.625 10.3549 5.98058 9.49645 6.61351 8.86351C7.24645 8.23058 8.10489 7.875 9 7.875H45Z" fill="black"/>
</g>
<defs>
<clipPath id="clip0_37_79">
<rect width="54" height="54" fill="white"/>
</clipPath>
</defs>
</svg>
