<svg width="58" height="58" viewBox="0 0 58 58" fill="none" xmlns="http://www.w3.org/2000/svg">
<g style="mix-blend-mode:color-burn" opacity="0.2" clip-path="url(#clip0_54_257)">
<path d="M50.7498 12.5183V41.0833C50.7493 43.2112 50.0468 45.2795 48.7511 46.9674C47.4554 48.6553 45.6389 49.8685 43.5835 50.4189C41.528 50.9693 39.3484 50.8261 37.3826 50.0115C35.4168 49.1969 33.7747 47.7565 32.711 45.9136C31.6473 44.0706 31.2213 41.9283 31.4993 39.8186C31.7772 37.709 32.7434 35.75 34.2481 34.2454C35.7529 32.7409 37.712 31.7749 39.8216 31.4972C41.9313 31.2195 44.0737 31.6457 45.9165 32.7096V22.1874L21.7498 26.2136V43.5C21.7498 43.645 21.7377 43.7828 21.7135 43.9205C21.887 45.7789 21.441 47.6424 20.4449 49.2208C19.4488 50.7993 17.9586 52.0039 16.2065 52.6471C14.4544 53.2902 12.5387 53.3358 10.758 52.7767C8.97726 52.2175 7.43147 51.0851 6.36146 49.5558C5.29146 48.0266 4.75732 46.1863 4.84227 44.3218C4.92721 42.4573 5.62648 40.6732 6.83112 39.2476C8.03576 37.822 9.67812 36.8348 11.5023 36.4399C13.3265 36.045 15.2301 36.2646 16.9165 37.0644V16.5469C16.9163 15.4028 17.3221 14.2957 18.0615 13.4226C18.801 12.5495 19.8262 11.9671 20.9547 11.7788L45.1214 7.75267C45.8137 7.63722 46.5228 7.67392 47.1995 7.86022C47.8761 8.04652 48.5041 8.37796 49.0397 8.83148C49.5754 9.28501 50.0058 9.84975 50.3011 10.4864C50.5964 11.1231 50.7495 11.8165 50.7498 12.5183ZM13.2915 41.0833C12.33 41.0833 11.408 41.4653 10.7282 42.1451C10.0484 42.8249 9.66646 43.7469 9.66646 44.7083C9.66646 45.6697 10.0484 46.5918 10.7282 47.2716C11.408 47.9514 12.33 48.3333 13.2915 48.3333C14.2529 48.3333 15.1749 47.9514 15.8547 47.2716C16.5345 46.5918 16.9165 45.6697 16.9165 44.7083C16.9165 43.7469 16.5345 42.8249 15.8547 42.1451C15.1749 41.4653 14.2529 41.0833 13.2915 41.0833ZM41.0831 36.25C39.8013 36.25 38.5719 36.7592 37.6654 37.6657C36.759 38.5721 36.2498 39.8015 36.2498 41.0833C36.2498 42.3652 36.759 43.5946 37.6654 44.501C38.5719 45.4074 39.8013 45.9167 41.0831 45.9167C42.365 45.9167 43.5944 45.4074 44.5008 44.501C45.4072 43.5946 45.9165 42.3652 45.9165 41.0833C45.9165 39.8015 45.4072 38.5721 44.5008 37.6657C43.5944 36.7592 42.365 36.25 41.0831 36.25ZM45.9165 12.5183L21.7498 16.5469V21.315L45.9165 17.2864V12.5183Z" fill="#FC0808"/>
</g>
<defs>
<clipPath id="clip0_54_257">
<rect width="58" height="58" fill="white"/>
</clipPath>
</defs>
</svg>
