<svg width="58" height="58" viewBox="0 0 58 58" fill="none" xmlns="http://www.w3.org/2000/svg">
<path d="M50.5737 24.1425C34.5996 21.9482 20.8246 33.8092 21.7502 49.5417M15.7085 19.3333C15.7085 20.6152 16.2177 21.8446 17.1241 22.751C18.0306 23.6574 19.2599 24.1667 20.5418 24.1667C21.8237 24.1667 23.0531 23.6574 23.9595 22.751C24.8659 21.8446 25.3752 20.6152 25.3752 19.3333C25.3752 18.0515 24.8659 16.8221 23.9595 15.9157C23.0531 15.0092 21.8237 14.5 20.5418 14.5C19.2599 14.5 18.0306 15.0092 17.1241 15.9157C16.2177 16.8221 15.7085 18.0515 15.7085 19.3333Z" stroke="black" stroke-width="4" stroke-linecap="round" stroke-linejoin="round"/>
<path d="M7.25 31.5762C13.9683 30.6458 19.9979 33.8913 23.258 39.0678" stroke="black" stroke-width="4" stroke-linecap="round" stroke-linejoin="round"/>
<path d="M7.25 29C7.25 18.7461 7.25 13.6203 10.4352 10.4352C13.6203 7.25 18.7485 7.25 29 7.25C39.2539 7.25 44.3797 7.25 47.5648 10.4352C50.75 13.6203 50.75 18.7485 50.75 29C50.75 39.2539 50.75 44.3797 47.5648 47.5648C44.3797 50.75 39.2515 50.75 29 50.75C18.7461 50.75 13.6203 50.75 10.4352 47.5648C7.25 44.3797 7.25 39.2515 7.25 29Z" stroke="black" stroke-width="4" stroke-linecap="round" stroke-linejoin="round"/>
</svg>
