<svg width="59" height="59" viewBox="0 0 59 59" fill="none" xmlns="http://www.w3.org/2000/svg">
<path fill-rule="evenodd" clip-rule="evenodd" d="M26.9063 3.07292H32.0934C35.4539 3.07292 38.1655 3.07292 40.2968 3.36055C42.5093 3.65555 44.3728 4.29471 45.8527 5.77217C46.5853 6.50721 47.1113 7.33567 47.4924 8.25509C49.7835 8.54026 51.7084 9.16959 53.2277 10.6888C54.7076 12.1688 55.3418 14.0322 55.6418 16.2447C55.9269 18.376 55.9269 21.0876 55.9269 24.4481V34.5519C55.9269 37.9124 55.9269 40.624 55.6418 42.7553C55.3418 44.9678 54.7076 46.8313 53.2277 48.3112C51.7084 49.8304 49.786 50.4598 47.4924 50.7474C47.1113 51.6643 46.5853 52.4928 45.8527 53.2278C44.3728 54.7078 42.5093 55.342 40.2968 55.6419C38.1655 55.9271 35.4539 55.9271 32.0934 55.9271H26.9063C23.5458 55.9271 20.8342 55.9271 18.7028 55.6419C16.4903 55.342 14.6269 54.7078 13.147 53.2278C12.4406 52.5185 11.8831 51.6752 11.5073 50.7474C9.21613 50.4598 7.29125 49.8304 5.772 48.3112C4.29209 46.8313 3.65784 44.9678 3.36038 42.7553C3.07275 40.624 3.07275 37.9124 3.07275 34.5519V24.4481C3.07275 21.0876 3.07275 18.376 3.36038 16.2447C3.65538 14.0322 4.29455 12.1688 5.772 10.6888C7.29125 9.16959 9.21367 8.54026 11.5073 8.25509C11.8837 7.32684 12.4411 6.4828 13.147 5.77217C14.6269 4.29226 16.4903 3.658 18.7028 3.36055C20.8342 3.07292 23.5458 3.07292 26.9063 3.07292ZM10.6395 12.1442C9.56521 12.4048 8.89409 12.7833 8.3803 13.2996C7.69934 13.9781 7.25684 14.9319 7.01346 16.7363C6.76517 18.5948 6.76025 21.0556 6.76025 24.5833V34.4167C6.76025 37.9444 6.76517 40.4076 7.01346 42.2637C7.25684 44.0681 7.7018 45.0219 8.3803 45.7029C8.89409 46.2167 9.56521 46.5953 10.642 46.8558C10.4478 44.8597 10.4478 42.4161 10.4478 39.4685V19.5315C10.4478 16.5864 10.4478 14.1403 10.6395 12.1442ZM48.3602 46.8558C49.4345 46.5953 50.1056 46.2167 50.6194 45.7029C51.3003 45.0219 51.7428 44.0681 51.9862 42.2612C52.2345 40.4076 52.2394 37.9468 52.2394 34.4191V24.5858C52.2394 21.0556 52.2345 18.5948 51.9862 16.7363C51.7428 14.9319 51.2979 13.9781 50.6194 13.2971C50.1056 12.7833 49.4345 12.4048 48.3577 12.1442C48.5519 14.1403 48.5519 16.5864 48.5519 19.5315V39.4685C48.5519 42.4136 48.5519 44.8597 48.3602 46.8558ZM19.1945 7.01363C17.3901 7.257 16.4363 7.70196 15.7553 8.38046C15.0743 9.06142 14.6318 10.0153 14.3885 11.8221C14.1402 13.6733 14.1353 16.1365 14.1353 19.6667V39.3333C14.1353 42.861 14.1402 45.3218 14.3885 47.1803C14.6318 48.9848 15.0768 49.9386 15.7553 50.6195C16.4363 51.3005 17.3901 51.743 19.197 51.9864C21.0505 52.2347 23.5138 52.2396 27.0415 52.2396H31.9582C35.4859 52.2396 37.9491 52.2347 39.8052 51.9864C41.6096 51.743 42.5634 51.298 43.2444 50.6195C43.9253 49.9386 44.3678 48.9848 44.6112 47.1779C44.8595 45.3218 44.8644 42.861 44.8644 39.3333V19.6667C44.8644 16.139 44.8595 13.6757 44.6112 11.8197C44.3678 10.0153 43.9229 9.06142 43.2444 8.38046C42.5634 7.6995 41.6096 7.257 39.8027 7.01363C37.9491 6.76534 35.4859 6.76042 31.9582 6.76042H27.0415C23.5138 6.76042 21.0505 6.76534 19.1945 7.01363ZM20.2811 22.125C20.2811 21.636 20.4753 21.167 20.8211 20.8213C21.1669 20.4755 21.6358 20.2813 22.1248 20.2813H36.8748C37.3638 20.2813 37.8328 20.4755 38.1786 20.8213C38.5243 21.167 38.7186 21.636 38.7186 22.125C38.7186 22.614 38.5243 23.083 38.1786 23.4287C37.8328 23.7745 37.3638 23.9688 36.8748 23.9688H22.1248C21.6358 23.9688 21.1669 23.7745 20.8211 23.4287C20.4753 23.083 20.2811 22.614 20.2811 22.125ZM20.2811 31.9583C20.2811 31.4693 20.4753 31.0004 20.8211 30.6546C21.1669 30.3088 21.6358 30.1146 22.1248 30.1146H36.8748C37.3638 30.1146 37.8328 30.3088 38.1786 30.6546C38.5243 31.0004 38.7186 31.4693 38.7186 31.9583C38.7186 32.4473 38.5243 32.9163 38.1786 33.2621C37.8328 33.6078 37.3638 33.8021 36.8748 33.8021H22.1248C21.6358 33.8021 21.1669 33.6078 20.8211 33.2621C20.4753 32.9163 20.2811 32.4473 20.2811 31.9583ZM20.2811 41.7917C20.2811 41.3027 20.4753 40.8337 20.8211 40.4879C21.1669 40.1422 21.6358 39.9479 22.1248 39.9479H29.4998C29.9888 39.9479 30.4578 40.1422 30.8036 40.4879C31.1493 40.8337 31.3436 41.3027 31.3436 41.7917C31.3436 42.2807 31.1493 42.7496 30.8036 43.0954C30.4578 43.4412 29.9888 43.6354 29.4998 43.6354H22.1248C21.6358 43.6354 21.1669 43.4412 20.8211 43.0954C20.4753 42.7496 20.2811 42.2807 20.2811 41.7917Z" fill="black"/>
</svg>
